<?xml version="1.0" ?><!DOCTYPE svg  PUBLIC '-//W3C//DTD SVG 1.1//EN'  'http://www.w3.org/Graphics/SVG/1.1/DTD/svg11.dtd'><svg height="512px" style="enable-background:new 0 0 512 512;" version="1.1" viewBox="0 0 512 512" width="512px" xml:space="preserve" xmlns="http://www.w3.org/2000/svg" xmlns:xlink="http://www.w3.org/1999/xlink"><g id="_x36_66_x2C__Code_x2C__coding_x2C__computer_x2C__monoblock_x2C__retro"><g><path d="M444.078,102.285H67.924c-4.349,0-8.313,1.777-11.157,4.621    c-2.873,2.871-4.65,6.837-4.65,11.186v233.129h137.199h0.097H322.59h0.096h137.197V118.092c0-4.266-1.709-8.149-4.472-10.994    l-0.177-0.164C452.376,104.063,448.426,102.285,444.078,102.285 M319.322,357.948H192.68v12.389h126.643V357.948z     M463.329,357.948h-0.083H326.05v15.753c0,1.857-1.519,3.361-3.364,3.361h-133.37c-1.846,0-3.35-1.504-3.35-3.361v-15.753H51.298    h-0.068h-0.068h-25.16v17.311l119.779,23.026h220.44l119.778-23.026v-17.311H463.329z M435.258,125.229h-358.5v203.049h358.5    V125.229z M303.926,148.174H98.976v9.022h204.95V148.174z M95.612,141.445h211.677c1.86,0,3.364,1.504,3.364,3.364v15.751    c0,1.832-1.504,3.363-3.364,3.363H95.612c-1.846,0-3.35-1.531-3.35-3.363V144.81C92.263,142.949,93.766,141.445,95.612,141.445z     M103.173,180.633c-1.858,0-3.362-1.504-3.362-3.364c0-1.832,1.504-3.335,3.362-3.335h87.948c1.846,0,3.362,1.503,3.362,3.335    c0,1.86-1.516,3.364-3.362,3.364H103.173z M103.173,195.729c-1.858,0-3.362-1.504-3.362-3.363c0-1.832,1.504-3.364,3.362-3.364    h271.06c1.86,0,3.364,1.532,3.364,3.364c0,1.859-1.504,3.363-3.364,3.363H103.173z M136.756,210.823    c1.285,0,2.597-0.819,3.036-1.887c1.122-2.242-0.602-4.839-3.036-4.839h-6.713c-1.272,0-2.585,0.848-3.022,1.886    c-1.121,2.243,0.602,4.84,3.022,4.84H136.756z M163.637,210.823c1.286,0,2.599-0.819,3.036-1.887    c1.107-2.242-0.602-4.839-3.036-4.839h-6.714c-1.271,0-2.597,0.848-3.021,1.886c-1.122,2.243,0.587,4.84,3.021,4.84H163.637z     M190.52,210.823c1.258,0,2.597-0.819,3.008-1.887c1.121-2.242-0.574-4.839-3.008-4.839h-6.728c-1.258,0-2.584,0.848-3.008,1.886    c-1.121,2.243,0.588,4.84,3.008,4.84H190.52z M217.401,210.823c1.258,0,2.599-0.819,3.007-1.887    c1.122-2.242-0.574-4.839-3.007-4.839h-6.728c-1.27,0-2.597,0.848-3.021,1.886c-1.121,2.243,0.588,4.84,3.021,4.84H217.401z     M244.27,210.823c1.271,0,2.597-0.819,3.021-1.887c1.122-2.242-0.588-4.839-3.021-4.839h-6.714c-1.272,0-2.599,0.848-3.021,1.886    c-1.121,2.243,0.588,4.84,3.021,4.84H244.27z M271.15,210.823c1.272,0,2.585-0.819,3.021-1.887    c1.121-2.242-0.588-4.839-3.021-4.839h-6.714c-1.284,0-2.597,0.848-3.035,1.886c-1.107,2.243,0.602,4.84,3.035,4.84H271.15z     M298.02,210.823c1.284,0,2.597-0.819,3.035-1.887c1.121-2.242-0.602-4.839-3.035-4.839h-6.714c-1.272,0-2.585,0.848-3.021,1.886    c-1.122,2.243,0.587,4.84,3.021,4.84H298.02z M324.9,210.823c1.271,0,2.599-0.819,3.021-1.887    c1.121-2.242-0.588-4.839-3.021-4.839h-6.714c-1.272,0-2.597,0.848-3.021,1.886c-1.122,2.243,0.588,4.84,3.021,4.84H324.9z     M351.783,210.823c1.271,0,2.597-0.819,3.021-1.887c1.121-2.242-0.588-4.839-3.021-4.839h-6.729c-1.258,0-2.598,0.848-3.009,1.886    c-1.12,2.243,0.575,4.84,3.009,4.84H351.783z M374.233,210.823c1.272,0,2.599-0.819,3.021-1.887    c1.122-2.242-0.588-4.839-3.021-4.839h-2.297c-1.259,0-2.597,0.848-3.008,1.886c-1.121,2.243,0.573,4.84,3.008,4.84H374.233z     M103.173,204.098c-1.27,0-2.597,0.848-3.021,1.886c-1.121,2.243,0.588,4.84,3.021,4.84h6.714c1.272,0,2.599-0.819,3.021-1.887    c1.122-2.242-0.587-4.839-3.021-4.839H103.173z M103.173,230.186c-1.858,0-3.362-1.504-3.362-3.364    c0-1.832,1.504-3.364,3.362-3.364h87.948c1.846,0,3.362,1.532,3.362,3.364c0,1.86-1.516,3.364-3.362,3.364H103.173z     M103.173,245.281c-1.858,0-3.362-1.506-3.362-3.364c0-1.86,1.504-3.364,3.362-3.364h271.06c1.86,0,3.364,1.504,3.364,3.364    c0,1.858-1.504,3.364-3.364,3.364H103.173z M103.173,260.375c-1.858,0-3.362-1.504-3.362-3.363c0-1.86,1.504-3.363,3.362-3.363    h271.06c1.86,0,3.364,1.503,3.364,3.363c0,1.859-1.504,3.363-3.364,3.363H103.173z M103.173,279.737    c-1.858,0-3.362-1.504-3.362-3.364c0-1.859,1.504-3.363,3.362-3.363h87.948c1.846,0,3.362,1.504,3.362,3.363    c0,1.86-1.516,3.364-3.362,3.364H103.173z M103.173,294.832c-1.858,0-3.362-1.504-3.362-3.364c0-1.858,1.504-3.362,3.362-3.362    h271.06c1.86,0,3.364,1.504,3.364,3.362c0,1.86-1.504,3.364-3.364,3.364H103.173z M136.756,309.928    c1.285,0,2.597-0.821,3.036-1.887c1.122-2.242-0.602-4.841-3.036-4.841h-6.713c-1.272,0-2.585,0.821-3.022,1.886    c-1.121,2.243,0.602,4.842,3.022,4.842H136.756z M163.637,309.928c1.286,0,2.599-0.821,3.036-1.887    c1.107-2.242-0.602-4.841-3.036-4.841h-6.714c-1.271,0-2.597,0.821-3.021,1.886c-1.122,2.243,0.587,4.842,3.021,4.842H163.637z     M190.52,309.928c1.258,0,2.597-0.821,3.008-1.887c1.121-2.242-0.574-4.841-3.008-4.841h-6.728c-1.258,0-2.584,0.821-3.008,1.886    c-1.121,2.243,0.588,4.842,3.008,4.842H190.52z M217.401,309.928c1.258,0,2.599-0.821,3.007-1.887    c1.122-2.242-0.574-4.841-3.007-4.841h-6.728c-1.27,0-2.597,0.821-3.021,1.886c-1.121,2.243,0.588,4.842,3.021,4.842H217.401z     M244.27,309.928c1.271,0,2.597-0.821,3.021-1.887c1.122-2.242-0.588-4.841-3.021-4.841h-6.714c-1.272,0-2.599,0.821-3.021,1.886    c-1.121,2.243,0.588,4.842,3.021,4.842H244.27z M271.15,309.928c1.272,0,2.585-0.821,3.021-1.887    c1.121-2.242-0.588-4.841-3.021-4.841h-6.714c-1.284,0-2.597,0.821-3.035,1.886c-1.107,2.243,0.602,4.842,3.035,4.842H271.15z     M298.02,309.928c1.284,0,2.597-0.821,3.035-1.887c1.121-2.242-0.602-4.841-3.035-4.841h-6.714c-1.272,0-2.585,0.821-3.021,1.886    c-1.122,2.243,0.587,4.842,3.021,4.842H298.02z M324.9,309.928c1.271,0,2.599-0.821,3.021-1.887    c1.121-2.242-0.588-4.841-3.021-4.841h-6.714c-1.272,0-2.597,0.821-3.021,1.886c-1.122,2.243,0.588,4.842,3.021,4.842H324.9z     M351.783,309.928c1.271,0,2.597-0.821,3.021-1.887c1.121-2.242-0.588-4.841-3.021-4.841h-6.729c-1.258,0-2.598,0.821-3.009,1.886    c-1.12,2.243,0.575,4.842,3.009,4.842H351.783z M374.233,309.928c1.272,0,2.599-0.821,3.021-1.887    c1.122-2.242-0.588-4.841-3.021-4.841h-2.297c-1.259,0-2.597,0.821-3.008,1.886c-1.121,2.243,0.573,4.842,3.008,4.842H374.233z     M103.173,303.2c-1.27,0-2.597,0.821-3.021,1.886c-1.121,2.243,0.588,4.842,3.021,4.842h6.714c1.272,0,2.599-0.821,3.021-1.887    c1.122-2.242-0.587-4.841-3.021-4.841H103.173z M60.896,416.061c-1.86,0-3.364-1.504-3.364-3.364c0-1.859,1.503-3.363,3.364-3.363    h283.666c1.846,0,3.35,1.504,3.35,3.363c0,1.86-1.504,3.364-3.35,3.364H60.896z M226.999,430.39c-1.86,0-3.364-1.532-3.364-3.364    c0-1.859,1.504-3.363,3.364-3.363h196.295c1.845,0,3.351,1.504,3.351,3.363c0,1.832-1.506,3.364-3.351,3.364H226.999z     M443.379,430.39c-1.859,0-3.363-1.532-3.363-3.364c0-1.859,1.504-3.363,3.363-3.363h24.544c1.86,0,3.364,1.504,3.364,3.363    c0,1.832-1.504,3.364-3.364,3.364H443.379z M49.726,430.062c-1.846,0-3.35-1.504-3.35-3.364c0-1.859,1.503-3.363,3.35-3.363h93.02    c1.846,0,3.35,1.504,3.35,3.363c0,1.86-1.504,3.364-3.35,3.364H49.726z M37.57,202.209c0,1.859-1.505,3.363-3.364,3.363    c-1.86,0-3.364-1.504-3.364-3.363v-98.064c0-6.18,2.542-11.814,6.617-15.889c4.117-4.102,9.735-6.646,15.916-6.646h32.98    c1.846,0,3.364,1.532,3.364,3.364c0,1.859-1.518,3.363-3.364,3.363h-32.98c-4.348,0-8.312,1.777-11.157,4.648    c-2.871,2.873-4.648,6.811-4.648,11.158V202.209z M73.394,118.502h365.215c1.858,0,3.363,1.504,3.363,3.362v209.776    c0,1.86-1.505,3.364-3.363,3.364H73.394c-1.86,0-3.364-1.504-3.364-3.364V121.864C70.03,120.006,71.534,118.502,73.394,118.502z" style="fill-rule:evenodd;clip-rule:evenodd;"/></g></g><g id="Layer_1"/></svg>