<?xml version="1.0" ?><!DOCTYPE svg  PUBLIC '-//W3C//DTD SVG 1.1//EN'  'http://www.w3.org/Graphics/SVG/1.1/DTD/svg11.dtd'><svg height="512px" style="enable-background:new 0 0 512 512;" version="1.1" viewBox="0 0 512 512" width="512px" xml:space="preserve" xmlns="http://www.w3.org/2000/svg" xmlns:xlink="http://www.w3.org/1999/xlink"><g id="_x36_62_x2C__Algorithm_x2C__chart_x2C__data_x2C__diagram_x2C__flow"><g><path d="M106.732,206.918l-0.369-0.17l-0.398-0.199l-0.481-0.254l-0.284-0.143    l-0.567-0.283l-0.17-0.085l-0.653-0.341l-0.086-0.058l-0.737-0.396l0,0l-0.738-0.396l-0.084-0.058l-0.625-0.341l-0.198-0.084    l-0.511-0.313l-0.284-0.142l-0.425-0.257l-0.369-0.198l-0.34-0.198v54.076c75.012,48.032,235.737,33.535,288.081,0v-54.076    l-0.596,0.341l-0.086,0.056l-0.708,0.398l0,0l-0.709,0.396l-0.086,0.058l-0.653,0.341l-0.17,0.112l-0.539,0.284l-0.283,0.142    l-0.453,0.255l-0.371,0.198l-0.368,0.2l-0.452,0.227l-0.313,0.142l-1.504,0.766l-0.768,0.37l-0.027,0.028    C316.651,237.871,184.129,245.305,106.732,206.918 M99.413,194.521c69.537,44.542,229.722,37.364,288.081-0.028v-54.076    c-2.27,1.334-4.654,2.609-7.178,3.887l-0.113,0.057c-63.041,31.322-198.599,37.99-274.719-0.623l-0.284-0.143l-0.567-0.313    l-0.823-0.426l-0.086-0.057l-0.737-0.368v-0.028l-0.738-0.368l-0.084-0.058c-0.937-0.511-1.844-1.021-2.751-1.561V194.521z     M99.413,131.934c77.283,49.451,237.863,32.201,288.081,0v-47.38c-8.597,6.014-23.689,11.178-43.295,15.093    c-25.76,5.106-59.836,8.313-97.285,8.512c-2.185,0.085-4.482-0.113-6.638,0c-37.564-0.17-71.722-3.375-97.569-8.54    c-19.604-3.887-34.697-9.079-43.293-15.064V131.934z M98.476,73.318c0.198,0.227,0.396,0.482,0.539,0.767    c3.632,6.979,20.257,13.475,45.083,18.413c25.505,5.078,59.183,8.256,96.178,8.398c1.9-0.115,4.682-0.086,6.61,0    c36.911-0.171,70.503-3.32,95.923-8.398c24.825-4.938,41.479-11.435,45.111-18.413c0.141-0.284,0.341-0.54,0.539-0.767    c0.112-0.427,0.17-0.852,0.17-1.277c0-7.093-15.604-14.072-40.797-19.576c-26.67-5.815-63.553-9.42-104.378-9.42    c-40.798,0-77.709,3.604-104.378,9.42c-25.195,5.504-40.77,12.483-40.77,19.576C98.306,72.467,98.362,72.892,98.476,73.318z     M239.963,390.055v-39.577c-29.59-0.228-57.282-3.319-81.169-8.568c-24.598-5.419-45.111-13.108-59.381-22.216V265.59l0.34,0.17    l0.369,0.229l0.425,0.227l0.284,0.17l0.511,0.284l0.198,0.112l0.625,0.34l0.084,0.059l0.738,0.396l0,0l0.737,0.396l0.086,0.029    l0.653,0.341l0.17,0.112l0.567,0.284l0.284,0.143c78.39,39.294,210.854,31.719,273.924,1.021l0.027-0.027h0.029l1.504-0.738    l0.199-0.113l0.539-0.284l0.313-0.142l0.452-0.255l0.368-0.2l0.371-0.17l0.453-0.254l0.283-0.143l0.539-0.313l0.17-0.084    l0.653-0.341l0.086-0.058l0.709-0.396l0,0l0.708-0.396l0.086-0.059l0.596-0.34v54.104c-14.271,9.136-34.755,16.797-59.354,22.216    c-23.889,5.249-51.579,8.341-81.197,8.568v39.577c3.659,0.71,6.922,2.496,9.476,5.021c2.525,2.525,4.311,5.789,5.022,9.447    h181.745c4.114,0,7.463,1.561,7.463,3.49c0,1.929-3.349,3.49-7.463,3.49H261.441c-0.711,3.659-2.497,6.923-5.022,9.448    c-3.32,3.317-7.916,5.36-12.966,5.36s-9.646-2.043-12.938-5.36c-2.525-2.525-4.311-5.789-5.022-9.448H52.997    c-4.141,0-7.489-1.562-7.489-3.49c0-1.93,3.348-3.49,7.489-3.49h172.497c0.711-3.658,2.497-6.922,5.022-9.447l0.17-0.17    C233.183,392.467,236.389,390.734,239.963,390.055z M41.578,468.955c-1.916,0-3.49-1.561-3.49-3.488c0-1.931,1.574-3.49,3.49-3.49    h307.303c1.93,0,3.49,1.56,3.49,3.49c0,1.928-1.561,3.488-3.49,3.488H41.578z M221.522,450.258c-1.9,0-3.49-1.56-3.49-3.488    c0-1.931,1.589-3.49,3.49-3.49h212.643c1.929,0,3.49,1.56,3.49,3.49c0,1.929-1.562,3.488-3.49,3.488H221.522z M455.954,450.258    c-1.929,0-3.49-1.56-3.49-3.488c0-1.931,1.562-3.49,3.49-3.49h26.584c1.9,0,3.461,1.56,3.461,3.49    c0,1.929-1.561,3.488-3.461,3.488H455.954z M29.478,450.826c-1.915,0-3.476-1.56-3.476-3.49c0-1.928,1.562-3.49,3.476-3.49    h100.775c1.928,0,3.488,1.563,3.488,3.49c0,1.931-1.56,3.49-3.488,3.49H29.478z M394.757,259.434v0.341    c0,21.222-0.142,42.5-0.142,63.694c-0.623,0.452-1.134,1.021-1.759,1.361c-11.519,7.66-27.009,14.355-45.365,19.66l-5.759,14.668    l5.9,3.434l15.32-19.207l2.384,0.936c1.984,0.767,4.085,1.447,6.27,2.043c2.157,0.568,4.341,1.021,6.44,1.361l2.553,0.398    l3.633,24.258h6.836l3.66-24.258l2.525-0.398c2.129-0.341,4.283-0.793,6.439-1.361c2.186-0.596,4.285-1.276,6.3-2.043l2.383-0.936    l15.291,19.207l5.93-3.434l-8.993-22.866l1.986-1.59c1.646-1.333,3.29-2.81,4.908-4.425c1.56-1.532,3.035-3.178,4.397-4.881    l1.617-2.014l22.866,8.992l3.406-5.929l-19.18-15.291l0.907-2.385c0.768-1.984,1.448-4.085,2.043-6.27    c0.597-2.185,1.051-4.341,1.361-6.44l0.398-2.553l24.258-3.633v-6.836l-24.258-3.66l-0.398-2.525    c-0.311-2.129-0.765-4.283-1.361-6.469c-0.595-2.184-1.275-4.284-2.043-6.27l-0.907-2.385l19.18-15.291l-3.406-5.929    l-22.866,8.993l-1.617-1.986c-1.362-1.702-2.838-3.348-4.397-4.908c-1.618-1.588-3.263-3.092-4.908-4.426l-1.986-1.59    l8.993-22.865l-5.93-3.435l-15.291,19.208l-2.383-0.936c-1.986-0.738-4.087-1.447-6.3-2.015c-2.156-0.597-4.311-1.05-6.439-1.39    l-2.497-0.37v34.273V259.434z" style="fill-rule:evenodd;clip-rule:evenodd;"/></g></g><g id="Layer_1"/></svg>