<?xml version="1.0" ?><!DOCTYPE svg  PUBLIC '-//W3C//DTD SVG 1.1//EN'  'http://www.w3.org/Graphics/SVG/1.1/DTD/svg11.dtd'><svg height="512px" style="enable-background:new 0 0 512 512;" version="1.1" viewBox="0 0 512 512" width="512px" xml:space="preserve" xmlns="http://www.w3.org/2000/svg" xmlns:xlink="http://www.w3.org/1999/xlink"><g id="_x36_56_x2C__Content_x2C__design_x2C__frame_x2C__page_x2C__text"><g><path d="M415.293,144.924H134.385l43.409,43.41c0.319,0.293,0.562,0.668,0.709,1.07    l0.014,0.025l23.658,47.77l0,0l0.014,0.055l0.01,0.026v0.026l0.028,0.026l0.014,0.028l0.014,0.025v0.027l0.025,0.025v0.029    l0.014,0.052h0.014l0.028,0.081l0,0v0.026l0.105,0.401l0.014,0.053l0,0l0.014,0.135h0.014v0.053l0.011,0.081v0.053l0,0v0.054    v0.429v0.026v0.026v0.028v0.053l0,0l-0.011,0.08h-0.014v0.107l-0.014,0.053l0,0l-0.014,0.027v0.053l0,0l-0.014,0.055l-0.011,0.026    l0,0v0.053v0.028l-0.028,0.026v0.026v0.025l-0.081,0.215l0,0l-0.028,0.055l-0.011,0.053l-0.014,0.027l0,0l-0.028,0.079    l-0.014,0.028l-0.014,0.026l-0.01,0.026l-0.014,0.026l-0.028,0.028l-0.024,0.053l-0.028,0.08l-0.014,0.026l-0.039,0.026v0.027    l-0.028,0.053l-0.2,0.27l0,0l-0.042,0.053v0.025l-0.052,0.055l0,0l-0.105,0.107l0,0l-0.056,0.053h-0.011l-0.056,0.055v0.025    l-0.066,0.055l-0.053,0.026v0.026l-0.053,0.027v0.027l-0.066,0.025l0,0l-0.067,0.055l0,0l-0.056,0.053h-0.01l-0.067,0.055l0,0    l-0.056,0.026l-0.024,0.026l-0.056,0.025h-0.011l-0.042,0.029l-0.024,0.025l-0.056,0.027h-0.025l-0.042,0.025l-0.039,0.028h-0.028    h-0.014l-0.039,0.026h-0.028l-0.024,0.026l-0.042,0.026l0,0h-0.039l-0.028,0.027h-0.024l-0.042,0.027h-0.014h-0.025l-0.056,0.025    l0,0h-0.052l-0.014,0.027h-0.024l-0.042,0.027h-0.01h-0.042h-0.028h-0.011l-0.042,0.027h-0.024h-0.028l-0.052,0.025l0,0h-0.042    h-0.039l0,0l-0.053,0.026h-0.028h-0.028h-0.039h-0.014h-0.028l-0.039,0.028h-0.014h-0.039h-0.028h-0.025h-0.042h-0.014h-0.039    h-0.042l0,0h-0.039h-0.028h-0.025h-0.056h-0.01h-0.028h-0.039h-0.056h-0.039h-0.014h-0.039h-0.014h-0.028h-0.053l0,0l-0.053-0.028    h-0.042l0,0h-0.039h-0.028h-0.025l-0.042-0.026h-0.014h-0.024h-0.056l0,0l-0.053-0.025h-0.024l0,0l-0.056-0.027h-0.081    l-0.024-0.027h-0.028h-0.053l0,0l-0.028-0.027h-0.052l0,0l-0.039-0.025h-0.042v-0.027h-0.053l-0.028-0.027h-0.014h-0.039    l-0.028-0.026h-0.011l-0.042-0.026h-0.014l-0.024-0.026h-0.042h-0.014l-8.858-4.39l-38.977-19.296l-0.053-0.026l-0.137-0.053    l-0.053-0.027l0,0l-0.025-0.027l-0.028-0.025l0,0l-0.119-0.055h-0.014l-0.053-0.053l0,0h-0.028l-0.028-0.026h-0.014l-0.039-0.028    l0,0l-0.028-0.026l-0.025-0.026h-0.014l-0.039-0.025l0,0l-0.028-0.029l-0.028-0.025l0,0l-0.039-0.027h-0.014l-0.028-0.025    l-0.024-0.028l0,0l-0.028-0.026h-0.024l-0.014-0.026l-0.028-0.026l-0.039-0.027l-0.014-0.027h-0.014l-0.028-0.025l0,0    l-51.597-51.598v190.652l84.541,43.167h233.459V144.924z M96.198,155.229l0.025,0.025l0.028,0.027l0.028,0.027l0.052,0.053    l56.854,56.844l38.794,19.215l-19.19-38.805h-0.014l-48.667-48.654l-0.053-0.08L68.498,88.323l-19.615,19.616L96.198,155.229z     M44.226,103.282l19.615-19.616l-3.211-3.211l-19.614,19.616L44.226,103.282z M36.358,95.416l19.604-19.617l-7.335-7.332    c-2.007-2.008-4.667-3.025-7.331-3.025c-2.65,0-5.313,1.018-7.321,3.025l-4.952,4.949c-2.004,2.008-3.021,4.658-3.021,7.334    c0,2.649,1.018,5.299,3.021,7.307L36.358,95.416z M485.999,225.719h-48.133v212.196h48.133v-13.408h-30.242    c-1.807,0-3.277-1.472-3.277-3.292c0-1.793,1.471-3.292,3.277-3.292h30.242v-11.802h-20.047c-1.804,0-3.292-1.473-3.292-3.265    c0-1.821,1.488-3.292,3.292-3.292h20.047v-11.133h-30.242c-1.807,0-3.277-1.473-3.277-3.293c0-1.819,1.471-3.291,3.277-3.291    h30.242v-11.801h-20.047c-1.804,0-3.292-1.473-3.292-3.293c0-1.818,1.488-3.291,3.292-3.291h20.047v-11.105h-30.242    c-1.807,0-3.277-1.473-3.277-3.293c0-1.819,1.471-3.291,3.277-3.291h30.242v-11.803h-20.047c-1.804,0-3.292-1.473-3.292-3.292    s1.488-3.292,3.292-3.292h20.047v-11.133h-30.242c-1.807,0-3.277-1.472-3.277-3.291c0-1.793,1.471-3.266,3.277-3.266h30.242    v-11.829h-20.047c-1.804,0-3.292-1.47-3.292-3.264c0-1.819,1.488-3.292,3.292-3.292h20.047v-11.134h-30.242    c-1.807,0-3.277-1.471-3.277-3.29c0-1.822,1.471-3.292,3.277-3.292h30.242v-11.803h-20.047c-1.804,0-3.292-1.472-3.292-3.292    c0-1.819,1.488-3.291,3.292-3.291h20.047v-11.106h-30.242c-1.807,0-3.277-1.472-3.277-3.292c0-1.819,1.471-3.292,3.277-3.292    h30.242V225.719z M258.387,211.855c-5.071,2.891-9.701,6.424-13.782,10.518c-11.76,11.748-19.014,27.994-19.014,45.924    c0,17.931,7.254,34.176,19,45.924c11.75,11.748,27.995,19,45.925,19c17.944,0,34.176-7.252,45.922-19    c1.66-1.66,3.24-3.426,4.71-5.244h-0.053l-0.053,0.025h-0.052l-0.029,0.026h-0.027h-0.053l-0.053,0.026h-0.053h-0.027    l-0.029,0.028h-0.053l-0.052,0.026h-0.053h-0.015l-0.146,0.053h-0.053l0,0l-0.057,0.027l-0.225,0.027l-0.057,0.025h-0.052h-0.015    l-0.038,0.027h-0.053l-0.056,0.027h-0.053h-0.015l-0.038,0.026h-0.066h-0.053l-0.057,0.026l0,0h-0.053l-0.053,0.026l-0.161,0.028    h-0.053l-0.053,0.025h-0.028h-0.027l-0.053,0.027h-0.053l-0.057,0.025h-0.024h-0.028h-0.053l-0.053,0.029h-0.066h-0.014    l-0.042,0.025h-0.053h-0.053l-0.042,0.026h-0.011h-0.056l-0.067,0.026h-0.052h-0.029h-0.023l-0.053,0.028h-0.057l-0.053,0.026    h-0.027h-0.025h-0.053l-0.056,0.026h-0.053h-0.015l-0.038,0.026h-0.053h-0.056l-0.066,0.027c-4.35,0.803-8.792,1.23-13.302,1.23    h-0.2h-0.186h-0.215h-0.189h-0.133h-0.053h-0.4h-0.203h-0.2h-0.066l-0.12-0.026h-0.199h-0.2H321.8l-0.2-0.026h-0.014h-0.172    h-0.204h-0.187l-0.213-0.027h-0.134h-0.053l-0.189-0.027h-0.2h-0.2l-0.189-0.025h-0.077h-0.123l-0.199-0.027h-0.187l-0.189-0.027    h-0.2h-0.014l-0.172-0.026l-0.2-0.026h-0.19l-0.199-0.026h-0.147h-0.053l-0.189-0.028l-0.187-0.025l-0.199-0.027h-0.2    l-0.189-0.025l-0.187-0.029h-0.186l-0.203-0.025l-0.201-0.026l0,0l-0.186-0.026l-0.189-0.028l-0.186-0.026h-0.201l-0.389-0.053    l-0.186-0.027l-0.19-0.027l-0.186-0.025l-0.081-0.027h-0.119l-0.186-0.027l-0.204-0.026l-0.187-0.026l-0.375-0.08l-0.186-0.027    l-0.2-0.025l-0.951-0.162l-0.187-0.026h-0.056l-0.134-0.026l-0.199-0.055l-0.201-0.025l-0.189-0.027l-0.157-0.027l-0.028-0.026    l-0.186-0.026l-0.204-0.055l-0.372-0.053l-0.095-0.025l-0.856-0.188l0,0l-0.199-0.026l-0.189-0.055l-0.187-0.053l-0.187-0.027    l-0.122-0.026l-0.081-0.026l-0.186-0.055l-0.187-0.026l-0.189-0.052L307,308.841l-0.187-0.053l-0.189-0.054l-0.133-0.027h-0.053    l-0.187-0.053l-0.189-0.054l-0.186-0.053l-0.187-0.055h-0.056l-0.134-0.053l-0.186-0.054l-0.189-0.053l-0.187-0.055l-0.375-0.08    l-0.187-0.08l-0.186-0.054l-0.189-0.053h-0.053l-0.134-0.055l-0.189-0.053l-0.186-0.054c-0.856-0.268-1.713-0.535-2.569-0.83    l-0.175-0.079l-0.092-0.028l-0.271-0.079l-0.186-0.081l-0.176-0.054l-0.066-0.026c-9.9-3.587-18.759-9.313-26.104-16.646    c-12.968-12.979-20.969-30.857-20.969-50.581c0-6.477,0.884-12.792,2.541-18.841l0.028-0.134l0.053-0.133v-0.026l0.028-0.135    l0.039-0.134l0.014-0.025l0.028-0.107l0.053-0.134v-0.054l0.028-0.107l0.039-0.134l0.014-0.054l0.028-0.08l0.039-0.135    l0.014-0.053l0.028-0.106l0.053-0.134l0.014-0.055l0.025-0.08l0.042-0.133l0.024-0.082l0.014-0.052l0.042-0.161l0.025-0.08    l0.014-0.054l0.053-0.134l0.028-0.08l0.014-0.053l0.039-0.135l0.042-0.107v-0.026l0.052-0.159l0.025-0.107l0.014-0.028    l0.042-0.134l0.052-0.106v-0.026l0.039-0.135l0.042-0.134l0,0l0.053-0.159l0.053-0.136l0,0l0.042-0.134l0.039-0.133h0.014    l0.039-0.133l0.056-0.136v-0.026l0.039-0.107l0.042-0.133l0.024-0.055l0.028-0.078l0.052-0.162l0.014-0.026l0.039-0.106    l0.042-0.134l0.014-0.055l0.039-0.081l0.039-0.133l0.027-0.053l0.028-0.08l0.053-0.134l0.028-0.081l0.024-0.055l0.053-0.133    l0.027-0.08l0.015-0.053l0.053-0.134l0.042-0.107l0.011-0.028l0.056-0.133l0.039-0.107v-0.025l0.053-0.134l0.056-0.107v-0.028    l0.053-0.133l0.053-0.133l0,0l0.053-0.135l0.056-0.135l0,0l0.053-0.133l0.053-0.134v-0.026l0.053-0.107l0.057-0.135l0.01-0.025    l0.042-0.107l0.067-0.134l0.014-0.026l0.039-0.107L258.387,211.855z M349.191,240.438l-0.242-0.508l-0.092-0.188l-0.123-0.24    l-0.023-0.081h-0.015l-0.081-0.188l-0.161-0.321l-0.267-0.48l-0.08-0.188l-0.12-0.215l-0.014-0.025l-0.038-0.082l-0.096-0.16    l-0.133-0.241l-0.043-0.081l-0.038-0.106l-0.053-0.079l-0.122-0.242l-0.053-0.079l-0.096-0.161l-0.066-0.107l-0.066-0.133    l-0.039-0.081l-0.094-0.159l-0.134-0.242l-0.053-0.079l-0.081-0.161l-0.147-0.24l-0.052-0.082l-0.082-0.159l-0.041-0.028    l-0.105-0.214l-0.053-0.081l-0.081-0.133l-0.147-0.24h-0.014l-0.053-0.107l-0.08-0.133l-0.148-0.242l-0.066-0.107l-0.053-0.079    l-0.027-0.054l-0.148-0.215l-0.066-0.107l-0.08-0.133l-0.105-0.161l-0.043-0.079l-0.066-0.107l-0.08-0.135l-0.162-0.215    l-0.066-0.106v-0.026l-0.08-0.107l-0.148-0.213c-11.826,4.656-21.941,12.685-29.167,22.908c-1.046,1.472-2.021,2.996-2.944,4.549    c5.699-0.91,11.146-2.542,16.246-4.816C336.438,251.464,343.396,246.486,349.191,240.438z M304.056,301.16    c3.829,1.258,7.829,2.169,11.95,2.704h0.066l0.628,0.079l0.176,0.027h0.014h0.161l0.172,0.027l0.176,0.025l0.172,0.027h0.134    l0.214,0.027l0.189,0.026l0.348,0.026h0.08h0.096l0.172,0.026h0.186l0.352,0.028h0.01l0.338,0.026l0.186,0.026h0.176l0.133,0.026    h0.039h0.189l0.348,0.028h0.186h0.066l0.095,0.025h0.187h0.189l0.172,0.027h0.176h0.014h0.172h0.176h0.172l0.189,0.025h0.133    h0.053h0.176h0.172h0.189h0.172h0.066h0.12h0.175l0.187,0.028h0.175h0.187c4.162,0,8.229-0.401,12.097-1.124    c3.626-0.695,7.16-1.688,10.571-2.945l0.123-0.214l0.119-0.24l0.119-0.214l0.134-0.215l0.108-0.214l0.134-0.214l0.105-0.24    l0.122-0.215l0,0l0.12-0.213l0.108-0.241l0.119-0.214l0.119-0.215l0.108-0.241l0.105-0.214l0.043-0.053l0.08-0.162l0.105-0.24    l0.119-0.214l0.028-0.106l0.081-0.134l0.105-0.214l0.108-0.24l0.053-0.107l0.052-0.107l0.109-0.242l0.105-0.24l0.095-0.214    l0.28-0.643l0.028-0.054l0.105-0.215l0.095-0.24l0.095-0.24l0.105-0.24l0.186-0.457v-0.025l0.295-0.669v-0.055l0.351-0.909    l0.012-0.025c1.631-4.311,2.824-8.86,3.491-13.57v-0.025l0.137-1.019v-0.026l0.158-1.365l0.028-0.24v-0.026l0.027-0.269    l0.025-0.267l0.027-0.24v-0.028l0.025-0.267l0.027-0.295l0.014-0.24v-0.026l0.015-0.269l0.024-0.267l0.014-0.269l0.015-0.026    v-0.268l0.028-0.268v-0.269h0.01l0.015-0.293v-0.269l0.028-0.267v-0.295l0.014-0.269l0.011-0.267v-0.294v-0.27v-0.293v-0.268    l0.014-0.268v-0.295v-0.32l-0.014-0.321v-0.188v-0.159v-0.321v-0.32v-0.055l-0.011-0.268l-0.014-0.32v-0.242l-0.015-0.107    l-0.014-0.321l-0.015-0.321l-0.01-0.078v-0.242l-0.028-0.321l-0.015-0.267v-0.055l-0.014-0.321l-0.024-0.321l-0.015-0.133    l-0.041-0.51l-0.025-0.294v-0.026l-0.027-0.321l-0.039-0.321l-0.014-0.16l-0.014-0.16l-0.039-0.322l-0.028-0.32v-0.026    l-0.081-0.59l-0.024-0.214l-0.014-0.107l-0.042-0.32l-0.039-0.322l-0.014-0.053c-0.59-4.229-1.58-8.322-2.931-12.23    c-5.941,5.754-12.887,10.49-20.526,13.918c-6.984,3.13-14.572,5.189-22.507,5.913c-3.439,7.921-5.339,16.673-5.339,25.879    c0,1.794,0.053,3.559,0.187,5.219L304.056,301.16z M261.092,254.166c2.783,12.017,8.896,22.775,17.327,31.205    c5.394,5.38,11.735,9.85,18.747,13.087c-0.147-1.953-0.228-3.88-0.228-5.754c0-8.991,1.659-17.608,4.709-25.558    c-8.805-0.053-17.287-1.739-25.117-4.765C271.021,260.27,265.841,257.484,261.092,254.166z M328.331,215.495l-0.214-0.159    l-0.229-0.162c-0.604-0.428-1.218-0.828-1.846-1.23c-0.604-0.401-1.219-0.803-1.846-1.177l-0.096-0.055    c-0.643-0.374-1.284-0.749-1.926-1.123l-0.053-0.026L321.119,211l-0.338-0.16l-0.172-0.107l-0.508-0.242l-0.015-0.025    l-0.509-0.241c-1.189-0.616-2.408-1.177-3.653-1.687l-0.119-0.08l-0.415-0.16l-1.056-0.428h-0.015l-0.551-0.215l-0.172-0.08    l-0.361-0.133l-0.375-0.134l-0.162-0.055l-0.561-0.214h-0.025l-0.523-0.188l-0.242-0.079l-0.305-0.107l-0.456-0.135l-0.095-0.026    l-0.562-0.188l-0.548-0.16l-0.322-0.107l-0.239-0.08l-0.522-0.134l-0.039-0.026l-0.575-0.161l-0.147-0.026l-0.414-0.107    l-0.362-0.106l-0.214-0.055l-0.564-0.134h-0.011l-0.565-0.133l-0.225-0.055l-0.347-0.08l-0.429-0.107l-0.147-0.026l-0.575-0.106    l-0.081-0.027l-0.509-0.106l-0.28-0.055l-0.295-0.052l-0.495-0.082l-0.095-0.025l-0.575-0.107h-0.134l-0.456-0.08l-0.348-0.053    l-0.238-0.055l-0.576-0.081h-0.027l-0.59-0.079l-0.2-0.027l-0.4-0.053l-0.403-0.027l-0.186-0.027l-0.604-0.079h-0.038    l-0.562-0.054l-0.242-0.027l-0.348-0.025l-0.48-0.029l-0.134-0.025l-0.59-0.026h-0.108l-0.505-0.026l-0.323-0.028l-0.295-0.026    l-0.533-0.026h-0.066h-0.604H292.2l-0.452-0.026h-0.39h-0.229h-0.614h-0.189h-0.2h-0.2h-0.186h-0.189h-0.2h-0.2l-0.186,0.026    h-0.189h-0.2h-0.2h-0.189h-0.187l0,0l-0.199,0.026h-0.2l-0.189,0.026h-0.187h-0.053h-0.133l-0.204,0.028h-0.186h-0.2l-0.108,0.026    h-0.081h-0.187l-0.186,0.026h-0.203l-0.173,0.025h-0.014h-0.2l-0.189,0.029h-0.186l-0.187,0.025h-0.042l-0.147,0.027l-0.372,0.025    l-0.189,0.028h-0.105l-0.08,0.026h-0.189l-0.187,0.026l-0.186,0.026h-0.015h-0.147l-0.175,0.027h-0.039l-0.133,0.027h-0.067    l-0.108,0.025h-0.081h-0.091l-0.456,0.081h-0.053l-0.323,0.053h-0.014c-2.717,0.376-5.391,0.911-7.988,1.607l0,0l-0.319,0.106l0,0    l-0.322,0.08h-0.024l-0.147,0.054h-0.015l-1.15,0.321l-0.162,0.053l-0.161,0.055l-0.053,0.025l-0.105,0.027l-0.161,0.055    l-0.176,0.052l-0.305,0.107h-0.015l-0.161,0.054l-0.172,0.053l-0.162,0.055l-0.161,0.053l-0.095,0.028l-0.066,0.026l-0.319,0.107    l-0.161,0.052l-0.162,0.055l-0.038,0.026l-0.12,0.026l-0.161,0.081l-0.161,0.054l-0.161,0.053l-0.147,0.055h-0.011l-0.161,0.052    l-0.162,0.055v0.027l-0.119,0.213h-0.014l-0.109,0.215l0,0l-0.133,0.214l0,0l-0.105,0.214l0,0l-0.134,0.215v0.025l-0.108,0.215    l0,0l-0.119,0.214l0,0l-0.123,0.214l0,0l-0.119,0.24l0,0l-0.119,0.215l0,0l-0.109,0.213l0,0l-0.105,0.242l0,0l-0.119,0.215l0,0    l-0.123,0.214v0.026l-0.104,0.214l0,0l-0.109,0.214l0,0l-0.105,0.24l0,0l-0.108,0.215l0,0l-0.105,0.242l0,0l-0.123,0.214l0,0    l-0.091,0.24l-0.108,0.214l0,0l-0.105,0.24l0,0l-0.109,0.215l-0.105,0.24l-0.108,0.242l0,0l-0.091,0.214l-0.095,0.241l0,0    l-0.109,0.24l-0.105,0.213l-0.08,0.241h-0.015l-0.095,0.242l0,0l-0.091,0.214l-0.095,0.24l-0.105,0.24l0,0l-0.081,0.24    l-0.108,0.215v0.027l-0.081,0.215l-0.091,0.24l-0.095,0.24l-0.081,0.24l-0.095,0.242l-0.091,0.215l-0.081,0.24l0,0l-0.081,0.24    l-0.08,0.242l0,0l-0.095,0.24l-0.081,0.24l-0.077,0.24l-0.081,0.242l-0.095,0.24l-0.066,0.24l-0.081,0.241l-0.08,0.241    l-0.067,0.241l-0.08,0.24l-0.081,0.24l-0.066,0.269l-0.066,0.24l-0.081,0.24l-0.066,0.242l-0.067,0.24l-0.08,0.241l-0.053,0.24    c-1.471,5.433-2.274,11.16-2.274,17.128l0.053,2.811c0.042,0.803,0.095,1.633,0.161,2.435c5.647,4.897,12.15,8.86,19.243,11.589    c7.197,2.756,15.066,4.281,23.296,4.281c0.814,0,1.618,0,2.422-0.026c1.604-3.185,3.425-6.235,5.46-9.099    c7.627-10.786,18.17-19.35,30.467-24.568l-0.014-0.025l-0.039-0.055l-0.119-0.134l-0.066-0.081l-0.138-0.159l-0.038-0.055    l-0.066-0.079l-0.067-0.08l-0.187-0.215l0,0C336.413,222.053,332.56,218.547,328.331,215.495z M321.347,192.801    c4.067,1.634,6.447-4.521,2.475-6.102c-2.127-0.855-4.243-1.631-6.437-2.328c-1.365-0.562-3.105,0.295-3.748,1.365    c-1.096,2.169-0.372,4.041,1.769,4.897C317.438,191.303,319.364,191.999,321.347,192.801z M342.889,205.809    c3.4,2.541,7.453-1.821,4.229-5.032c-1.66-1.444-3.615-2.942-5.404-4.201c-3.373-2.517-7.335,2.729-3.801,5.378    C339.596,203.159,341.309,204.471,342.889,205.809z M359.467,224.755c0.323,0.535,0.737,0.856,1.246,1.151    c3.05,1.524,6.047-1.766,4.32-4.629c-1.203-1.928-2.517-3.828-3.867-5.646c-2.607-3.48-7.869,0.48-5.271,3.934    C357.154,221.249,358.344,222.99,359.467,224.755z M369.477,247.877c0.28,1.473,2.021,2.757,3.72,2.436    c1.888-0.401,3.063-1.979,2.636-4.094c-0.576-2.195-1.218-4.361-1.955-6.531c-1.751-4.389-7.693-1.524-6.219,2.143    C368.354,243.81,368.953,245.844,369.477,247.877z M371.926,272.98c0,4.736,6.556,4.229,6.556,0.321    c0.12-2.274,0.187-4.576,0.12-6.824c0-4.175-6.57-4.31-6.57,0.106C372.031,268.752,372.031,270.813,371.926,272.98z     M366.641,297.575c-1.579,3.96,4.534,6.396,6.113,2.435c0.832-2.087,1.594-4.389,2.222-6.557c0.656-1.605-0.601-3.451-1.898-3.986    c-2.089-0.83-3.706,0.4-4.391,2.141C368.059,293.641,367.389,295.594,366.641,297.575z M354.049,319.385    c-2.73,3.668,2.702,7.388,5.166,4.096c1.418-1.793,2.74-3.586,4.053-5.461c2.475-4.119-3.439-7.01-5.418-3.691    C356.617,316.066,355.386,317.727,354.049,319.385z M335.434,336.354c-0.52,0.321-1.004,0.963-1.189,1.444    c-1.231,3.077,1.994,5.728,4.844,4.015c1.902-1.232,3.762-2.598,5.541-3.988c3.345-2.488-0.643-7.707-3.963-5.245    C338.982,333.89,337.241,335.174,335.434,336.354z M312.541,346.816c-4.189,1.688-2.436,7.172,1.805,6.342L312.541,346.816z     M287.532,349.788c-4.59,0-4.281,6.556-0.203,6.556c2.235,0.08,4.576,0.107,6.812,0c4.043,0,4.296-6.584-0.172-6.584    C291.8,349.84,289.698,349.84,287.532,349.788z M262.815,344.998c-3.759-1.499-6.503,4.495-2.222,6.207    c2.197,0.724,4.285,1.445,6.531,2.061c4.763,0.963,5.433-5.62,1.688-6.342C266.749,346.334,264.837,345.692,262.815,344.998z     M240.751,332.874c-3.545-2.649-7.398,2.676-4.015,5.218c1.821,1.393,3.653,2.703,5.556,3.961c4.001,2.381,7.05-3.425,3.611-5.514    C244.124,335.389,242.425,334.158,240.751,332.874z M223.397,314.623c-2.769-3.721-7.816,0.507-5.395,3.746    c1.313,1.872,2.664,3.691,4.11,5.459c2.502,3.345,7.654-0.75,5.166-4.067C225.938,318.048,224.667,316.414,223.397,314.623z     M212.465,291.929c-1.874-4.657-7.64-1.473-6.289,1.927c0.614,2.086,1.404,4.441,2.235,6.448c1.632,4.067,7.707,1.579,6.114-2.407    C213.763,295.996,213.04,293.908,212.465,291.929z M208.997,266.986c0-4.443-6.58-4.31-6.58-0.08c0,2.3,0.024,4.521,0.158,6.824    c0,3.398,5.78,4.735,6.56,0.025C209.134,271.508,208.997,269.261,208.997,266.986z M213.269,242.151    c1.565-3.882-4.619-6.155-6.25-2.062c-0.723,2.195-1.323,4.31-1.927,6.557c-0.923,4.63,5.608,5.46,6.384,1.58    C212.022,246.164,212.598,244.211,213.269,242.151z M224.923,219.857c2.541-3.398-2.758-7.279-5.285-3.906    c-1.365,1.82-2.639,3.721-3.843,5.646c-2.313,3.854,3.425,7.064,5.566,3.506C222.474,223.311,223.678,221.544,224.923,219.857z     M242.854,202.142c3.53-2.649-0.495-7.841-3.882-5.3c-1.874,1.365-3.572,2.757-5.38,4.203c-3.517,3.532,1.66,7.626,4.282,5.004    C239.348,204.684,241.222,203.346,242.854,202.142z M265.293,190.74c4.496-1.793,1.499-7.654-2.061-6.234    c-2.141,0.695-4.337,1.471-6.411,2.355c-3.773,1.524-1.551,7.707,2.544,6.074C261.316,192.133,263.271,191.409,265.293,190.74z     M290.516,180.196c-2.407,0.134-4.763,0.107-7.212,0.295c-3.814,0-4.243,6.556,0.306,6.556c4.871-0.267,8.485-0.053,13.22-0.053    c4.966,0,4.229-6.557,0.509-6.557C295.145,180.438,292.79,180.196,290.516,180.196z M169.098,197.484    c1.109,1.125,1.109,2.944,0,4.041c-1.112,1.125-2.93,1.125-4.043,0l-92.77-92.756c-1.109-1.125-1.109-2.944,0-4.041    c1.112-1.125,2.931-1.125,4.043,0L169.098,197.484z M161.629,204.844c1.137,1.125,1.137,2.999,0,4.122    c-1.151,1.151-2.997,1.151-4.12,0l-94.711-94.711c-1.137-1.123-1.137-2.97,0-4.12c1.137-1.125,2.997-1.125,4.12,0L161.629,204.844    z M83.15,429.859c-1.807,0-3.292-1.499-3.292-3.292c0-1.82,1.484-3.292,3.292-3.292h229.525c1.808,0,3.278,1.472,3.278,3.292    c0,1.793-1.471,3.292-3.278,3.292H83.15z M217.55,446.559c-1.807,0-3.292-1.472-3.292-3.292c0-1.819,1.485-3.292,3.292-3.292    h158.819c1.817,0,3.291,1.473,3.291,3.292c0,1.82-1.474,3.292-3.291,3.292H217.55z M395.822,446.559    c-1.818,0-3.289-1.472-3.289-3.292c0-1.819,1.471-3.292,3.289-3.292h23.766c1.818,0,3.292,1.473,3.292,3.292    c0,1.82-1.474,3.292-3.292,3.292H395.822z M74.12,446.05c-1.821,0-3.292-1.472-3.292-3.292c0-1.819,1.471-3.292,3.292-3.292    h75.254c1.804,0,3.292,1.473,3.292,3.292c0,1.82-1.488,3.292-3.292,3.292H74.12z M296.001,127.154    c-1.817,0-3.292-1.471-3.292-3.291c0-1.793,1.475-3.291,3.292-3.291h140.128c1.817,0,3.288,1.498,3.288,3.291v64.63    c0,1.819-1.471,3.292-3.288,3.292c-1.821,0-3.292-1.473-3.292-3.292v-61.339H296.001z M290.516,196.789h0.681h0.257h0.428    l0.48,0.027h0.187l0.67,0.025h0.053l0.618,0.028h0.305l0.361,0.026l0.552,0.026l0.119,0.026l0.656,0.027l0.133,0.027l0.534,0.025    l0.361,0.027l0.295,0.054l0.617,0.053h0.053l0.643,0.055l0.214,0.026l0.456,0.055l0.429,0.053l0.214,0.025l0.667,0.107h0.014    l0.628,0.08l0.267,0.055l0.376,0.053l0.509,0.081l0.147,0.026l0.643,0.107l0.095,0.025l0.547,0.107h0.015l0.628,0.107l0.548,0.106    l0.08,0.028l0.643,0.133l0.161,0.027l0.481,0.106l0.375,0.081l0.256,0.08l0.615,0.134h0.014l0.628,0.159l0.214,0.055l0.414,0.107    l0.443,0.133l0.186,0.027l0.617,0.188h0.039l0.59,0.161l0.266,0.081l0.348,0.106l0.484,0.159l0.134,0.055l0.601,0.187l0.108,0.028    l0.495,0.159l0.333,0.106l0.28,0.107l0.551,0.188l0.067,0.027l0.586,0.213l0.161,0.055l0.457,0.16l0.375,0.162l0.215,0.078    l0.586,0.215h0.014l0.59,0.242l0.214,0.078l0.376,0.162l0.428,0.188l0.147,0.053l0.586,0.268l0.066,0.027l0.522,0.214l0.268,0.134    l0.804,0.375l0.081,0.026l0.589,0.267l0.105,0.055l0.775,0.401l0.242,0.106l0.537,0.268l0.024,0.026l0.562,0.294l0.176,0.082    l0.386,0.213l0.375,0.188l0.19,0.106l1.095,0.616l0.229,0.134c0.656,0.373,1.298,0.775,1.94,1.15l0.28,0.187l0.253,0.161    l0.484,0.295l0.053,0.026l0.533,0.348l0.847,0.562l0.225,0.161l1.07,0.749l0.122,0.081c1.365,0.964,2.702,2.007,4.001,3.05    l0.08,0.08l0.668,0.563l0.242,0.188l0.399,0.375l0.081,0.053c0.628,0.535,1.246,1.098,1.846,1.66l0.081,0.079l0.483,0.429    l0.053,0.08l0.615,0.59l0.256,0.24l0.361,0.375l0.105,0.08l0.027,0.027l0.105,0.133l0.134,0.135l0.108,0.106l0.081,0.054    l0.053,0.08l0.119,0.106l0.123,0.136l0.119,0.133l0.028,0.026l0.091,0.106l0.123,0.107l0.119,0.133l0.105,0.107l0.015,0.028    l0.119,0.106l0.123,0.134l0.119,0.134l0.08,0.08l0.028,0.053l0.134,0.135l0.105,0.107l0.122,0.134l0.038,0.053l0.082,0.081    l0.119,0.133l0.119,0.135l0.108,0.134l0,0l0.119,0.106l0.123,0.134l0.105,0.134l0.081,0.107l0.027,0.027l0.134,0.133l0.104,0.134    l0.109,0.134l0.053,0.055l0.066,0.08l0.119,0.133l0.109,0.134l0.105,0.134h0.027l0.081,0.135l0.119,0.133l0.123,0.134l0.091,0.107    l0.015,0.026l0.108,0.135l0.105,0.133l0.109,0.135l0.076,0.08l0.043,0.053l0.105,0.135l0.122,0.134l0.105,0.134l0.028,0.027    l0.08,0.107l0.105,0.133l0.109,0.134l0.105,0.134v0.027l0.108,0.133l0.104,0.134l0.109,0.134l0.215,0.268l0.104,0.135l0.108,0.16    l0.053,0.053l0.053,0.081l0.109,0.134l0.105,0.133l0.094,0.162h0.015l0.091,0.133l0.109,0.133l0.095,0.136l0.091,0.134    l0.014,0.025l0.029,0.027h0.014l0.105,0.161l0.214,0.294l0.642,0.91l0.119,0.161l0.029,0.052l0.186,0.27l0.133,0.214l0.028,0.026    l0.348,0.509l0.348,0.562l0.108,0.133l0.133,0.215l0.053,0.08l0.067,0.107l0.337,0.562l0,0l0.158,0.214l0.175,0.295l0.015,0.026    l0.105,0.188l0.056,0.081l0.187,0.295v0.025l0.172,0.295l0.041,0.053l0.105,0.188l0.028,0.052l0.187,0.295l0.108,0.215l0,0    l0.053,0.08l0.175,0.321l0.092,0.16l0.081,0.135l0.028,0.053l0.146,0.24l0.067,0.161l0.095,0.16l0.119,0.188l0.053,0.107    l0.053,0.107l0.108,0.213l0.161,0.295l0.025,0.053l0,0l0.133,0.27l0.162,0.32h0.014l0.095,0.162l0.053,0.133l0.147,0.295    l0.014,0.026l0.158,0.295l0.014,0.026l0.147,0.295l0.242,0.535l0.053,0.107l0.161,0.32l0.081,0.16l0.067,0.133v0.028l0.146,0.293    l0.053,0.136l0.267,0.588l0.257,0.561l0,0l0.133,0.321l0.682,1.634l0.133,0.321l0.057,0.134l0.066,0.188l0.133,0.348l0.361,0.989    l0.053,0.106l0.081,0.215c0.962,2.703,1.794,5.461,2.45,8.297l0.066,0.347l0.08,0.349l0.348,1.688l0.039,0.159l0.094,0.535    l0.067,0.321v0.026l0.119,0.67l0.028,0.214l0.024,0.134l0.056,0.348l0.053,0.347l0.053,0.35l0.053,0.348l0.028,0.24l0.028,0.08    l0.038,0.375l0.042,0.322l0.025,0.107l0.027,0.267l0.039,0.321l0.042,0.32v0.027l0.038,0.375l0.043,0.348l0.01,0.133l0.015,0.215    l0.042,0.349l0.039,0.348l0.027,0.347l0.025,0.348l0.014,0.215l0.014,0.135l0.028,0.373l0.024,0.348v0.055l0.014,0.295    l0.015,0.348l0.024,0.267v0.106l0.027,0.35v0.348v0.107l0.029,0.268v0.348l0.014,0.295v0.053l0.01,0.375v0.348v0.16v0.188v0.375    v0.348v0.295v0.321v0.293v0.295v0.321l-0.01,0.295v0.025l-0.014,0.27v0.32l-0.015,0.295l-0.015,0.293l-0.014,0.295l-0.014,0.321    v0.055l-0.024,0.24v0.295l-0.028,0.293l-0.024,0.321l-0.015,0.295l-0.014,0.295l-0.014,0.08l-0.014,0.215l-0.025,0.293    l-0.027,0.295v0.08l-0.029,0.24l-0.023,0.295l-0.028,0.295l-0.024,0.186l-0.015,0.107l-0.028,0.295l-0.038,0.295l-0.015,0.107    l-0.014,0.188l-0.039,0.295c-1.982,16.27-9.408,30.828-20.407,41.854c-12.954,12.954-30.827,20.955-50.579,20.955    c-19.737,0-37.614-8.001-50.554-20.927c-12.954-12.954-20.955-30.831-20.955-50.581c0-19.723,8.001-37.601,20.941-50.553    c6.893-6.878,15.147-12.337,24.328-15.977l0.038-0.027h0.028l0.053-0.027l0.189-0.08l0.2-0.053l0.2-0.081l0.375-0.159l0.187-0.055    l0.2-0.08l0.203-0.08l0,0l0.186-0.055l0.187-0.08l0.203-0.079l0.2-0.054l0.053-0.027l0.134-0.054l0.2-0.053l0.199-0.081    l0.189-0.053l0.105-0.055l0.081-0.025l0.214-0.055l0.189-0.079l0.2-0.054l0.147-0.053h0.053l0.186-0.081l0.204-0.055l0.2-0.052    l0.199-0.082l0.604-0.188l0.186-0.053l0.2-0.054l0.2-0.053l0.203-0.055l0.011-0.026l0.189-0.053h0.024l0.176-0.055h0.038    l0.162-0.054h0.042l0.158-0.053h0.056l0.144-0.054l0.07-0.027l0.134-0.025l0.08-0.027l0.12-0.027l0.08-0.027l0.134-0.025    l0.081-0.026l0.119-0.028l0.095-0.026l0.105-0.026l0.108-0.026l0.091-0.028l0.123-0.025l0.081-0.027l0.133-0.025l0.081-0.028    l0.134-0.026l0.053-0.026l0.161-0.026l0.053-0.028l0.161-0.026h0.053l0.161-0.053h0.024l0.189-0.055h0.025l0.189-0.052h0.014    l0.2-0.028l0,0l0.214-0.053l0,0l0.2-0.055h0.014l0.187-0.025l0.042-0.027l0.172-0.025h0.042l0.172-0.055h0.042l0.158-0.026    l0.057-0.026l0.147-0.028l0.077-0.026h0.137l0.077-0.025l0.137-0.027l0.077-0.027l0.123-0.027h0.091l0.109-0.025l0.104-0.026    l0.109-0.028h0.119l0.081-0.026l0.361-0.053l0.053-0.028l0.161-0.025h0.042l0.601-0.107h0.014l0.4-0.081h0.042l0.158-0.026    l0.417-0.053l0.092-0.027h0.108l0.105-0.027l1.099-0.159h0.038l0.189-0.028h0.015l0.214-0.025l0,0l0.214-0.027l0,0l0.225-0.025    l0.176-0.029h0.053l0.161-0.025h0.053h0.147l0.081-0.026h0.119l0.108-0.026h0.105l0.108-0.028h0.105h0.123l0.091-0.026h0.138    h0.053l0.161-0.026h0.053l0.186-0.026h0.028l0.186-0.027h0.028h0.2l0.2-0.027l0.214-0.025h0.189h0.024l0.214-0.027h0.2    l0.204-0.027l0.428-0.026h0.214l0.215-0.026h0.199l0.12-0.026h0.08h0.215h0.214l0.214-0.028h0.186h0.028h0.214l0.2-0.025h0.2    h0.214h0.057h0.158h0.214l0.214-0.027h0.203h0.215h0.214h0.2h0.214H290.516z" style="fill-rule:evenodd;clip-rule:evenodd;"/></g></g><g id="Layer_1"/></svg>