<?xml version="1.0" ?><!DOCTYPE svg  PUBLIC '-//W3C//DTD SVG 1.1//EN'  'http://www.w3.org/Graphics/SVG/1.1/DTD/svg11.dtd'><svg height="512px" style="enable-background:new 0 0 512 512;" version="1.1" viewBox="0 0 512 512" width="512px" xml:space="preserve" xmlns="http://www.w3.org/2000/svg" xmlns:xlink="http://www.w3.org/1999/xlink"><g id="_x36_65_x2C__computer_x2C_devices_x2C_mobile_x2C_responsive_x2C_technology"><g><path d="M381.444,209.07H87.113c-3.234,0-6.149,1.31-8.288,3.422    c-2.111,2.14-3.422,5.078-3.422,8.288v181.757h106.799h104.153h106.798V220.78c0-3.21-1.31-6.148-3.448-8.261    C387.594,210.406,384.654,209.07,381.444,209.07 M283.175,409.114h-97.791v8.395h97.791V409.114z M289.75,409.114v11.683    c0,1.818-1.497,3.289-3.289,3.289H182.096c-1.792,0-3.262-1.471-3.262-3.289v-11.683c-41.302,0-82.579,0-123.88,0v12.352    l93.137,17.911h172.376l93.139-17.911v-12.352C372.303,409.114,331.027,409.114,289.75,409.114z M373.88,227.008H94.68v157.593    h279.2V227.008z M91.391,220.432h285.777c1.818,0,3.289,1.498,3.289,3.288v164.169c0,1.818-1.471,3.289-3.289,3.289H91.391    c-1.818,0-3.288-1.471-3.288-3.289V223.72C88.103,221.93,89.573,220.432,91.391,220.432z M268.417,163.597v18.688    c0,1.229,0.481,2.324,1.283,3.152c0.83,0.803,1.925,1.311,3.155,1.311h87.578c1.229,0,2.353-0.508,3.154-1.311    c0.803-0.801,1.309-1.924,1.309-3.152v-18.688H268.417z M268.417,49.794v107.228h96.479V49.794H268.417z M360.434,26.002h-87.578    c-1.23,0-2.325,0.508-3.127,1.336c-0.83,0.803-1.312,1.899-1.312,3.129v12.778h96.479V30.467c0-1.178-0.453-2.219-1.175-3.021    l-0.134-0.133C362.786,26.51,361.663,26.002,360.434,26.002z M318.354,173.409c-0.426-0.429-1.041-0.694-1.71-0.694    c-0.667,0-1.257,0.266-1.683,0.694c-0.455,0.427-0.724,1.042-0.724,1.711s0.269,1.257,0.695,1.683    c0.428,0.455,1.044,0.723,1.711,0.723c0.669,0,1.284-0.295,1.71-0.723c0.429-0.426,0.697-1.042,0.697-1.683    C319.051,174.451,318.782,173.836,318.354,173.409z M316.644,166.138c2.46,0,4.706,1.016,6.336,2.62l0.081,0.106    c1.604,1.63,2.565,3.821,2.565,6.256c0,2.458-1.017,4.731-2.62,6.335c-1.63,1.631-3.876,2.647-6.362,2.647    c-2.458,0-4.704-1.017-6.335-2.647c-1.63-1.631-2.646-3.877-2.646-6.335c0-2.486,1.017-4.732,2.646-6.362    C311.912,167.153,314.186,166.138,316.644,166.138z M341.266,347.228l-22.563-7.966l7.672,22.481L341.266,347.228z     M314.506,330.84l33.925,11.95c1.711,0.588,2.592,2.486,2.004,4.169c-0.187,0.562-0.507,1.016-0.909,1.363l-8.447,8.235    l6.736,5.532c1.418,1.123,1.631,3.182,0.48,4.6c-1.121,1.391-3.207,1.604-4.597,0.48l-7.353-6.015l-9.116,8.901    c-1.309,1.257-3.367,1.23-4.624-0.078c-0.373-0.348-0.615-0.803-0.775-1.257l-11.495-33.739c-0.588-1.711,0.321-3.581,2.032-4.168    C313.088,330.573,313.838,330.6,314.506,330.84z M76.046,31.695H52.467h-0.054h-0.079l0,0h-0.081l0,0h-0.081l0,0l-0.053,0.028    h-0.026h-0.055l0,0h-0.081l0,0h-0.053l-0.026,0.026h-0.054l0,0h-0.053h-0.026l-0.054,0.026h-0.026h-0.054h-0.026h-0.026    l-0.026,0.026h-0.055h-0.026l-0.054,0.026h-0.026h-0.026l-0.026,0.028h-0.054h-0.026l-0.053,0.025h-0.028H51.13l-0.026,0.027    H51.05l-0.32,0.106l0,0l-0.188,0.081h-0.026l-0.188,0.107l0,0l-0.052,0.025h-0.028c-0.319,0.16-0.667,0.374-0.988,0.614    l-0.028,0.028l-0.105,0.107h-0.028c-0.186,0.159-0.374,0.348-0.562,0.533l0,0l-0.186,0.214l0,0l-0.054,0.081l0,0l-0.053,0.053    h-0.026l-0.028,0.08h-0.026l-0.026,0.053H48.11l-0.162,0.215l0,0l-0.052,0.08l0,0l-0.055,0.08l0,0l-0.24,0.375l0,0l-0.133,0.24    l0,0l-0.214,0.401l0,0l-0.24,0.507l0,0c-0.107,0.24-0.188,0.48-0.267,0.722l0,0l-0.162,0.562l0,0l-0.026,0.107l0,0l-0.026,0.188    l0,0l-0.054,0.295l-0.053,0.186l0,0v0.107l-0.026,0.107l0,0v0.106l-0.028,0.081v0.106l-0.026,0.106l0,0v0.107v0.107l0,0    l-0.026,0.105v0.107v0.08v0.107v0.106v0.107v0.106v125.646c0,2.191,0.695,4.143,1.844,5.561l0.133,0.133    c1.097,1.283,2.593,2.113,4.171,2.113h23.579V31.695z M215.085,31.695H82.623v141.26h132.463V31.695z M244.144,165.148V39.502    c0-2.271-0.75-4.277-1.951-5.721c-1.097-1.283-2.594-2.086-4.197-2.086h-16.335v141.26c4.785,0,17.484,1.471,20.532-2.113    C243.395,169.426,244.144,167.395,244.144,165.148z M258.045,282.053c-6.096-6.07-14.489-9.813-23.766-9.813    c-9.275,0-17.67,3.742-23.738,9.813c-6.068,6.094-9.839,14.489-9.839,23.765c0,9.277,3.743,17.671,9.813,23.74    c6.094,6.067,14.489,9.837,23.765,9.837c9.277,0,17.67-3.77,23.74-9.837c6.068-6.069,9.837-14.463,9.837-23.74    C267.855,296.542,264.113,288.121,258.045,282.053z M234.279,265.665c11.067,0,21.12,4.491,28.392,11.763    c7.27,7.271,11.762,17.296,11.762,28.39c0,11.067-4.492,21.12-11.762,28.392c-7.272,7.27-17.297,11.762-28.392,11.762    c-11.067,0-21.118-4.518-28.39-11.762c-7.271-7.271-11.762-17.324-11.762-28.392c0-11.094,4.491-21.145,11.762-28.39    C213.161,270.156,223.186,265.665,234.279,265.665z M164.826,82.703c-4.998-5-11.921-8.101-19.595-8.101    c-7.591,0-14.462,3.048-19.462,7.94l-0.133,0.186c-5.025,5-8.126,11.95-8.126,19.596c0,7.674,3.101,14.598,8.1,19.598    c5.026,5.025,11.95,8.125,19.622,8.125c7.674,0,14.598-3.1,19.595-8.1c5.027-5.025,8.128-11.949,8.128-19.623    C172.954,94.679,169.853,87.729,164.826,82.703z M145.23,68.025c9.463,0,18.046,3.851,24.247,10.053    c6.229,6.202,10.053,14.783,10.053,24.246c0,9.465-3.824,18.02-10.053,24.247c-6.228,6.229-14.784,10.054-24.247,10.054    c-9.435,0-18.018-3.824-24.247-10.054c-6.201-6.228-10.051-14.782-10.051-24.247c0-9.463,3.85-18.044,10.051-24.246l0.188-0.188    C127.374,71.795,135.874,68.025,145.23,68.025z M330.439,92.594c-3.529-3.528-8.395-5.721-13.796-5.721    c-5.373,0-10.266,2.192-13.767,5.721c-3.528,3.529-5.722,8.395-5.722,13.795c0,5.293,2.112,10.131,5.561,13.634l0.161,0.134    c3.529,3.528,8.394,5.721,13.767,5.721c5.401,0,10.267-2.192,13.796-5.695c3.528-3.528,5.693-8.42,5.693-13.793    C336.133,100.988,333.968,96.123,330.439,92.594z M308.864,36.695c-1.817,0-3.288-1.471-3.288-3.289s1.471-3.288,3.288-3.288    h15.586c1.792,0,3.288,1.47,3.288,3.288s-1.496,3.289-3.288,3.289H308.864z M229.627,94.146c0-1.792,1.471-3.263,3.289-3.263    s3.288,1.471,3.288,3.263v16.333c0,1.818-1.47,3.289-3.288,3.289s-3.289-1.471-3.289-3.289V94.146z M131.463,106.229    c-1.149-1.39-0.962-3.477,0.428-4.625c1.363-1.176,3.45-0.99,4.599,0.401l5.185,6.201l18.179-15.132    c1.364-1.175,3.448-0.961,4.598,0.402c1.149,1.391,0.963,3.475-0.428,4.624l-20.664,17.218c-1.39,1.148-3.448,0.961-4.625-0.402    L131.463,106.229z M305.871,109.783c-1.149-1.363-0.964-3.447,0.399-4.598c1.392-1.177,3.477-0.988,4.626,0.4l3.262,3.877    l12.672-10.561c1.363-1.149,3.447-0.961,4.598,0.428c1.148,1.391,0.963,3.449-0.428,4.6l-15.186,12.672    c-1.363,1.148-3.447,0.961-4.597-0.429L305.871,109.783z M218.4,310.041c-1.175-1.39-0.989-3.448,0.4-4.624    c1.392-1.149,3.45-0.963,4.625,0.427l6.549,7.807l22.055-18.392c1.39-1.151,3.448-0.963,4.599,0.427    c1.176,1.39,0.962,3.449-0.402,4.625l-24.568,20.479c-1.39,1.149-3.475,0.961-4.624-0.428L218.4,310.041z M64.016,286.624    c0,1.79-1.471,3.261-3.289,3.261s-3.287-1.471-3.287-3.261v-76.751c0-5,2.058-9.57,5.373-12.885    c3.341-3.344,7.912-5.402,12.912-5.402h25.798c1.818,0,3.287,1.471,3.287,3.289s-1.469,3.289-3.287,3.289H75.725    c-3.208,0-6.149,1.309-8.26,3.421c-2.139,2.14-3.45,5.08-3.45,8.288V286.624z M84.172,461.994c-1.818,0-3.289-1.471-3.289-3.289    c0-1.817,1.471-3.288,3.289-3.288h257.227c1.817,0,3.288,1.471,3.288,3.288c0,1.818-1.471,3.289-3.288,3.289H84.172z     M224.309,485.999c-1.792,0-3.289-1.471-3.289-3.289c0-1.817,1.497-3.286,3.289-3.286h195.498c1.792,0,3.289,1.469,3.289,3.286    c0,1.818-1.497,3.289-3.289,3.289H224.309z M439.804,485.999c-1.817,0-3.288-1.471-3.288-3.289c0-1.817,1.471-3.286,3.288-3.286    h24.434c1.817,0,3.288,1.469,3.288,3.286c0,1.818-1.471,3.289-3.288,3.289H439.804z M47.763,485.385    c-1.792,0-3.288-1.471-3.288-3.289c0-1.791,1.497-3.288,3.288-3.288h92.63c1.818,0,3.289,1.497,3.289,3.288    c0,1.818-1.471,3.289-3.289,3.289H47.763z M316.644,80.323c7.192,0,13.688,2.915,18.419,7.619    c4.732,4.732,7.646,11.255,7.646,18.446c0,7.164-2.914,13.687-7.619,18.393c-4.758,4.73-11.254,7.672-18.446,7.672    c-7.191,0-13.714-2.941-18.418-7.646l-0.188-0.188c-4.597-4.704-7.457-11.147-7.457-18.231c0-7.191,2.912-13.714,7.646-18.42    C302.956,83.238,309.48,80.323,316.644,80.323z" style="fill-rule:evenodd;clip-rule:evenodd;"/></g></g><g id="Layer_1"/></svg>